<?xml version="1.0" encoding="UTF-8"?>
<!DOCTYPE svg PUBLIC "-//W3C//DTD SVG 1.1//EN" "http://www.w3.org/Graphics/SVG/1.1/DTD/svg11.dtd">
<!-- Creator: CorelDRAW -->
<svg xmlns="http://www.w3.org/2000/svg" xml:space="preserve" width="2048px" height="2048px" style="shape-rendering:geometricPrecision; text-rendering:geometricPrecision; image-rendering:optimizeQuality; fill-rule:evenodd; clip-rule:evenodd"
viewBox="0 0 2048 2048"
 xmlns:xlink="http://www.w3.org/1999/xlink">
 <defs>
  <style type="text/css">
   <![CDATA[
    .fil0 {fill:none}
    .fil1 {fill:#212121;fill-rule:nonzero}
   ]]>
  </style>
 </defs>
 <g id="Layer_x0020_1">
  <metadata id="CorelCorpID_0Corel-Layer"/>
  <g id="_394194856">
   <rect id="_394187872" class="fil0" width="2048" height="2048"/>
   <rect id="_394186768" class="fil0" x="255.999" y="255.999" width="1536" height="1536"/>
  </g>
  <path class="fil1" d="M575.999 223.999l960.002 0c26.4319,0 50.4402,10.7917 67.8237,28.1752 17.3847,17.3847 28.1764,41.3941 28.1764,67.8249l0 1408c0,26.4307 -10.7929,50.439 -28.1764,67.8237 -17.3847,17.3835 -41.3929,28.1764 -67.8237,28.1764l-960.002 0c-26.4307,0 -50.4402,-10.7917 -67.8249,-28.1764 -17.3835,-17.3835 -28.1752,-41.3918 -28.1752,-67.8237l0 -1408c0,-26.4343 10.7917,-50.4414 28.1752,-67.8249 17.3835,-17.3835 41.3906,-28.1752 67.8249,-28.1752zm960.002 64.0016l-960.002 0c-8.76615,0 -16.761,3.61063 -22.5744,9.42402 -5.81339,5.81339 -9.42402,13.8083 -9.42402,22.5744l0 1408c0,8.76615 3.61063,16.7599 9.42402,22.5732 5.81457,5.81457 13.8095,9.4252 22.5744,9.4252l960.002 0c8.76497,0 16.7587,-3.61063 22.5732,-9.4252 5.81457,-5.81457 9.4252,-13.8083 9.4252,-22.5732l0 -1408c0,-8.76497 -3.61063,-16.7599 -9.4252,-22.5744 -5.81339,-5.81339 -13.8071,-9.42402 -22.5732,-9.42402z"/>
  <polygon class="fil1" points="608,543.996 1152,543.996 1152,607.998 608,607.998 "/>
  <polygon class="fil1" points="1238.63,521.373 1280,562.748 1449.38,393.374 1494.63,438.624 1302.63,630.624 1280,653.249 1257.38,630.624 1193.38,566.624 "/>
  <polygon class="fil1" points="608,874.664 1152,874.664 1152,938.665 608,938.665 "/>
  <polygon class="fil1" points="1238.63,852.041 1280,893.416 1449.38,724.041 1494.63,769.292 1302.63,961.292 1280,983.917 1257.38,961.292 1193.38,897.291 "/>
  <polygon class="fil1" points="608,1205.33 1152,1205.33 1152,1269.33 608,1269.33 "/>
  <polygon class="fil1" points="1238.63,1182.71 1280,1224.08 1449.38,1054.71 1494.63,1099.96 1302.63,1291.96 1280,1314.58 1257.38,1291.96 1193.38,1227.96 "/>
  <polygon class="fil1" points="608,1536 1152,1536 1152,1600 608,1600 "/>
  <polygon class="fil1" points="1238.63,1513.37 1280,1554.75 1449.38,1385.37 1494.63,1430.62 1302.63,1622.62 1280,1645.25 1257.38,1622.62 1193.38,1558.62 "/>
 </g>
</svg>
